<svg width="141" height="81" viewBox="0 0 141 81" fill="none" xmlns="http://www.w3.org/2000/svg">
<g id="3">
<g id="Rectangle" transform="translate(-2 -1)">
<rect width="144" height="83" fill="#03A9F5"/>
<rect width="144" height="83" fill="url(#paint0_linear)"/>
</g>
<g id="Intersect" filter="url(#filter0_d)">
<path fill-rule="evenodd" clip-rule="evenodd" d="M143.68 50.1318H0V0C4.72461 2.6626 9.60254 6.30176 14.5762 10.0117C22.0225 15.5659 29.6807 21.2783 37.3506 24.1099C53.1641 29.9482 64.459 28.0371 75.6455 26.1445C85.7285 24.4385 95.7236 22.7476 108.859 26.7627C121.39 30.5928 135.502 40.25 143.68 50.1318Z" transform="translate(-2 31.8682)" fill="url(#paint1_linear)"/>
</g>
<g id="Intersect_2" filter="url(#filter1_d)">
<path fill-rule="evenodd" clip-rule="evenodd" d="M103.178 44.2715C94.5234 47.168 88.2461 41.9517 81.7246 36.5322C76.3242 32.0439 70.7549 27.4165 63.5293 27.1436C29.874 25.8726 1.80957 22.4229 0 0H103.178V44.2715Z" transform="translate(38.8223 -1)" fill="#7015D1"/>
<path fill-rule="evenodd" clip-rule="evenodd" d="M103.178 44.2715C94.5234 47.168 88.2461 41.9517 81.7246 36.5322C76.3242 32.0439 70.7549 27.4165 63.5293 27.1436C29.874 25.8726 1.80957 22.4229 0 0H103.178V44.2715Z" transform="translate(38.8223 -1)" fill="url(#paint2_linear)"/>
<path fill-rule="evenodd" clip-rule="evenodd" d="M103.178 44.2715C94.5234 47.168 88.2461 41.9517 81.7246 36.5322C76.3242 32.0439 70.7549 27.4165 63.5293 27.1436C29.874 25.8726 1.80957 22.4229 0 0H103.178V44.2715Z" transform="translate(38.8223 -1)" fill="url(#paint3_linear)"/>
</g>
</g>
<defs>
<filter id="filter0_d" x="-7" y="21.8682" width="163.68" height="70.1318" filterUnits="userSpaceOnUse" color-interpolation-filters="sRGB">
<feFlood flood-opacity="0" result="BackgroundImageFix"/>
<feColorMatrix in="SourceAlpha" type="matrix" values="0 0 0 0 0 0 0 0 0 0 0 0 0 0 0 0 0 0 255 0"/>
<feOffset dx="5"/>
<feGaussianBlur stdDeviation="5"/>
<feColorMatrix type="matrix" values="0 0 0 0 0 0 0 0 0 0 0 0 0 0 0 0 0 0 0.15 0"/>
<feBlend mode="normal" in2="BackgroundImageFix" result="effect1_dropShadow"/>
<feBlend mode="normal" in="SourceGraphic" in2="effect1_dropShadow" result="shape"/>
</filter>
<filter id="filter1_d" x="28.8223" y="-7" width="123.178" height="65.0992" filterUnits="userSpaceOnUse" color-interpolation-filters="sRGB">
<feFlood flood-opacity="0" result="BackgroundImageFix"/>
<feColorMatrix in="SourceAlpha" type="matrix" values="0 0 0 0 0 0 0 0 0 0 0 0 0 0 0 0 0 0 255 0"/>
<feOffset dy="4"/>
<feGaussianBlur stdDeviation="5"/>
<feColorMatrix type="matrix" values="0 0 0 0 0 0 0 0 0 0 0 0 0 0 0 0 0 0 0.15 0"/>
<feBlend mode="normal" in2="BackgroundImageFix" result="effect1_dropShadow"/>
<feBlend mode="normal" in="SourceGraphic" in2="effect1_dropShadow" result="shape"/>
</filter>
<linearGradient id="paint0_linear" x2="1" gradientUnits="userSpaceOnUse" gradientTransform="matrix(-83.3143 72.625 -126 -147.066 181.286 32.0328)">
<stop stop-color="#1DE9B6"/>
<stop offset="1" stop-color="#1DE9B6" stop-opacity="0"/>
</linearGradient>
<linearGradient id="paint1_linear" x2="1" gradientUnits="userSpaceOnUse" gradientTransform="matrix(93.6004 35.2752 -100.646 271.714 66.2658 -106.475)">
<stop stop-color="#5707AD" stop-opacity="0.8"/>
<stop offset="1" stop-color="#03A9F5" stop-opacity="0.17"/>
</linearGradient>
<linearGradient id="paint2_linear" x2="1" gradientUnits="userSpaceOnUse" gradientTransform="matrix(-50.3996 92.3381 -133.956 -74.3924 159.87 -6.37919)">
<stop stop-color="#1DE9B6"/>
<stop offset="1" stop-color="#1DE9B6" stop-opacity="0"/>
</linearGradient>
<linearGradient id="paint3_linear" x2="1" gradientUnits="userSpaceOnUse" gradientTransform="matrix(-12.3428 87.1505 -126.431 -18.2186 129.879 -37.0599)">
<stop stop-color="#03A9F5"/>
<stop offset="1" stop-color="#03A9F5" stop-opacity="0"/>
</linearGradient>
</defs>
</svg>
